<svg xmlns="http://www.w3.org/2000/svg" width="200" height="200" viewBox="732.589 -48.786 200 200"><g transform="translate(-481.695 -1.745)"><path d="M1214.284-47.041h200v200h-200z" style="fill:none"/><path d="M1249.069 17.645h129.461c5.645 0 10.222 4.577 10.222 10.222v59.556c0 5.646-4.577 10.222-10.222 10.222h-129.461c-5.646 0-10.222-4.576-10.222-10.222V27.867c0-5.645 4.576-10.222 10.222-10.222m-2.222 14.269v51.462a6.22 6.22 0 0 0 6.222 6.222h121.461a6.22 6.22 0 0 0 6.222-6.222V31.914a6.22 6.22 0 0 0-6.222-6.222h-121.461a6.22 6.22 0 0 0-6.222 6.222" style="fill-rule:evenodd;fill:rgb(249 112 102)"/><path d="M1272.704 57.455h8v69.069a4 4 0 0 1-8 0z" style="fill:rgb(249 112 102)"/><path d="M1272.704 57.794c0 30.792 33.333 50.037 60 34.641a40 40 0 0 0 20-34.641c0-30.792-33.334-50.037-60-34.641a40 40 0 0 0-20 34.641m8 0c0-24.633 26.666-40.029 48-27.713 9.9 5.717 16 16.281 16 27.713 0 24.634-26.667 40.03-48 27.713a32 32 0 0 1-16-27.713" style="fill:rgb(249 112 102);fill-rule:evenodd"/><rect width="4" height="30" x="1370.7" y="42.566" rx="2" ry="2" style="fill:rgb(249 112 102)"/><path fill="none" stroke="#f97066" stroke-linecap="round" stroke-linejoin="round" stroke-width="41" d="M374.56 358.023c73.705-73.376 142.623 35.279-.916 115.313-140.788-80.034-71.871-188.689.916-115.313" style="stroke-width:27.2677px;stroke:rgb(249 112 102)" transform="translate(1203.134 -119.575)scale(.29339)"/></g></svg>